<?xml version="1.0" standalone="no"?><!DOCTYPE svg PUBLIC "-//W3C//DTD SVG 1.1//EN" "http://www.w3.org/Graphics/SVG/1.1/DTD/svg11.dtd"><svg t="1735566312196" class="icon" viewBox="0 0 1024 1024" version="1.1" xmlns="http://www.w3.org/2000/svg" p-id="1167" xmlns:xlink="http://www.w3.org/1999/xlink" width="200" height="200"><path d="M64.44 512c2.03-148.35 27.79-271.18 103.12-344.44C240.82 92.24 363.65 66.47 512 64.44c148.35 2.03 271.17 27.79 344.43 103.12 75.33 73.26 101.1 196.09 103.13 344.44-2.03 148.35-27.8 271.17-103.12 344.43C783.17 931.76 660.35 957.52 512 959.56c-148.35-2.03-271.17-27.79-344.43-103.12C92.24 783.18 66.47 660.35 64.44 512z" p-id="1168" data-spm-anchor-id="a313x.manage_type_myprojects.0.i3.10fe3a81Ixihvo" class="selected" fill="#70C000"></path><path d="M459.66 494.96H335.17c-15.56 0-28.29-12.73-28.29-28.29V342.18c0-15.56 12.73-28.29 28.29-28.29h124.49c15.56 0 28.29 12.73 28.29 28.29v124.49c0 15.56-12.73 28.29-28.29 28.29zM459.66 722.13H335.17c-15.56 0-28.29-12.73-28.29-28.29V569.35c0-15.56 12.73-28.29 28.29-28.29h124.49c15.56 0 28.29 12.73 28.29 28.29v124.49c0 15.56-12.73 28.29-28.29 28.29zM612.21 499.71l-77.64-77.64c-9.7-9.7-9.7-25.58 0-35.28l77.64-77.64c9.7-9.7 25.58-9.7 35.28 0l77.64 77.64c9.7 9.7 9.7 25.58 0 35.28l-77.64 77.64c-9.7 9.7-25.57 9.7-35.28 0zM692.1 722.13H567.61c-15.56 0-28.29-12.73-28.29-28.29V569.35c0-15.56 12.73-28.29 28.29-28.29H692.1c15.56 0 28.29 12.73 28.29 28.29v124.49c0 15.56-12.73 28.29-28.29 28.29z" fill="#FFFFFF" p-id="1169"></path></svg>